<?xml version="1.0" encoding="UTF-8"?>
<!DOCTYPE svg PUBLIC "-//W3C//DTD SVG 1.1//EN" "http://www.w3.org/Graphics/SVG/1.1/DTD/svg11.dtd">
<!-- Creator: CorelDRAW 2021 (64-Bit) -->
<svg xmlns="http://www.w3.org/2000/svg" xml:space="preserve" width="390.065mm" height="114.297mm" version="1.1" style="shape-rendering:geometricPrecision; text-rendering:geometricPrecision; image-rendering:optimizeQuality; fill-rule:evenodd; clip-rule:evenodd"
viewBox="0 0 37047.22 10855.55"
 xmlns:xlink="http://www.w3.org/1999/xlink"
 xmlns:xodm="http://www.corel.com/coreldraw/odm/2003">
 <defs>
  <style type="text/css">
   <![CDATA[
    .fil0 {fill:white}
   ]]>
  </style>
 </defs>
 <g id="Capa_x0020_1">
  <metadata id="CorelCorpID_0Corel-Layer"/>
  <path class="fil0" d="M13416.55 9730.27l-52.95 450.12c0,397.16 251.53,569.25 582.48,569.25 370.68,0 608.97,-251.54 608.97,-622.21l0 -4501.07c0,-397.16 -264.77,-661.92 -661.92,-661.92l-582.49 0c-370.68,0 -635.44,198.58 -635.44,569.25l0 119.15c0,317.72 251.53,529.53 556.01,529.53l0 2713.88c0,383.92 -225.06,635.45 -556.01,635.45 -304.49,0 -503.06,-238.3 -503.06,-529.54l0 -7148.77c0,-291.25 238.3,-529.54 529.54,-529.54 291.24,0 529.53,238.3 529.53,529.54l0 1191.46c0,397.16 264.77,661.92 661.92,661.92 397.16,0 661.92,-264.77 661.92,-661.92l0 -1191.46c0,-1125.27 -781.07,-1853.39 -1853.38,-1853.39 -1072.32,0 -1853.39,728.12 -1853.39,1853.39l0 7492.97c0,926.69 410.4,1509.18 1178.23,1509.18 595.72,0 1032.6,-397.16 1231.18,-1125.28l158.86 0zm-4633.18 -8884.82c-405.02,-316.04 -1691.88,951.02 -2185.56,1583.69l-957.37 1226.89 -1245.52 -161.78 301.12 -385.91c50.37,-64.55 38.76,-158.64 -25.8,-209.01l-152.75 -119.2c-80.79,-63.05 -198.51,-48.53 -261.57,32.27l-470.29 602.7 -990.14 -128.62 225.86 -289.45c50.37,-64.55 38.76,-158.64 -25.8,-209.01l-152.75 -119.2c-80.8,-63.05 -198.51,-48.53 -261.57,32.27l-395.03 506.25 -1744.66 -226.63c-55.28,1.32 -147.5,-35.93 -193.51,23.03l-248.06 317.9c1412.99,704.13 2981.19,1303.42 4268.82,2092.17l-973.67 1247.79c-203.17,260.38 -407.15,617.57 -590.67,994.08 -459.04,-83.27 -947.26,-67.6 -1437.46,-45.38 -76.84,3.49 -168.8,1.28 -213.55,58.62l-267.31 342.57 1533.88 530.15c-156.84,407.51 -265.8,761.51 -295.71,948.74 19.88,-3.7 -1.24,-20.18 0,0 174.35,-74.53 507.75,-253.39 864.91,-504.58l887.12 1358.99 267.31 -342.57c44.75,-57.35 20.26,-146.02 4.95,-221.39 -97.61,-480.9 -201.09,-958.28 -393.45,-1383.31 320.59,-269.54 617.49,-554.23 820.67,-814.61l973.67 -1247.79c1078.11,1057.27 2040.65,2432.73 3067.14,3632.17l248.06 -317.91c46.01,-58.95 -12.55,-139.36 -24.7,-193.3l-643.94 -1637.23 395.02 -506.24c63.06,-80.82 48.51,-198.53 -32.27,-261.57l-152.75 -119.2c-64.56,-50.38 -158.64,-38.76 -209.02,25.79l-225.86 289.45 -365.46 -929.16 470.29 -602.71c63.06,-80.81 48.51,-198.52 -32.27,-261.56l-152.75 -119.2c-64.56,-50.38 -158.64,-38.77 -209.02,25.79l-301.12 385.91 -459.72 -1168.83 957.37 -1226.89c493.68,-632.67 1409.9,-2188.95 1004.88,-2505zm25880.92 7230.02l529.54 0c1072.31,0 1853.38,-728.11 1853.38,-1853.38l0 -4236.32c0,-1125.27 -781.07,-1853.38 -1853.38,-1853.38l-1191.47 0c-397.15,0 -661.92,264.77 -661.92,661.92l0 9293.41c0,397.16 264.78,661.92 661.92,661.92 397.16,0 661.92,-264.77 661.92,-661.92l0 -2012.25zm0 -1323.85l0 -5295.39 529.54 0c291.25,0 529.53,238.29 529.53,529.53l0 4236.32c0,291.25 -238.29,529.53 -529.53,529.53l-529.54 0zm-3706.77 3336.1c0,397.16 264.78,661.92 661.92,661.92 397.16,0 661.92,-264.77 661.92,-661.92l0 -9319.89c0,-397.16 -264.77,-661.92 -661.92,-661.92 -397.15,0 -661.92,264.77 -661.92,661.92l0 9319.89zm-3322.86 -3812.68l211.82 0c556.01,0 847.26,397.16 847.26,1164.99l0 2647.69c0,397.16 264.77,661.92 661.92,661.92 397.16,0 661.92,-264.77 661.92,-661.92l0 -2647.69c0,-1231.18 -463.35,-1588.61 -1337.09,-1734.24l0 -158.86c847.26,-105.91 1350.33,-661.92 1350.33,-1760.72l0 -1800.43c0,-1125.27 -781.07,-1853.38 -1853.38,-1853.38l-1204.71 0c-397.15,0 -661.92,264.77 -661.92,661.92l0 9293.41c0,397.16 264.78,661.92 661.92,661.92 397.16,0 661.92,-264.77 661.92,-661.92l0 -3812.68zm0 -1217.94l0 -3600.86 542.78 0c291.25,0 529.53,238.29 529.53,529.53l0 2144.64c0,622.2 -238.29,926.69 -807.54,926.69l-264.78 0zm-4448.12 -3600.86l0 8631.48c0,397.16 264.77,661.92 661.92,661.92 397.15,0 661.92,-264.77 661.92,-661.92l0 -8631.48 556.01 0c410.39,0 648.68,-278.01 648.68,-661.92 0,-397.16 -264.77,-661.92 -661.92,-661.92l-2409.41 0c-397.15,0 -661.92,264.77 -661.92,661.92 0,383.92 238.3,661.92 648.68,661.92l556.02 0zm-3587.63 3971.54c0,344.2 238.3,582.49 582.49,582.49l1509.18 0c344.2,0 582.49,-238.3 582.49,-582.49 0,-344.2 -238.3,-582.49 -582.49,-582.49l-1509.18 0c-344.2,0 -582.49,238.3 -582.49,582.49zm-4103.93 3574.38c0,1125.27 781.07,1853.39 1853.39,1853.39 1072.31,0 1853.38,-728.12 1853.38,-1853.39l0 -7148.77c0,-1125.27 -781.07,-1853.39 -1853.38,-1853.39 -1072.32,0 -1853.39,728.12 -1853.39,1853.39l0 7148.77zm1853.39 529.54c-291.25,0 -529.54,-238.3 -529.54,-529.54l0 -7148.77c0,-291.25 238.3,-529.54 529.54,-529.54 291.24,0 529.53,238.3 529.53,529.54l0 7148.77c0,291.25 -238.3,529.54 -529.53,529.54z"/>
 </g>
</svg>
